<svg width="237" height="54" viewBox="0 0 237 54" fill="none" xmlns="http://www.w3.org/2000/svg">
<path d="M21.168 29.632C21.168 30.208 21.132 30.808 21.06 31.432H7.128C7.224 32.68 7.62 33.64 8.316 34.312C9.036 34.96 9.912 35.284 10.944 35.284C12.48 35.284 13.548 34.636 14.148 33.34H20.7C20.364 34.66 19.752 35.848 18.864 36.904C18 37.96 16.908 38.788 15.588 39.388C14.268 39.988 12.792 40.288 11.16 40.288C9.192 40.288 7.44 39.868 5.904 39.028C4.368 38.188 3.168 36.988 2.304 35.428C1.44 33.868 1.008 32.044 1.008 29.956C1.008 27.868 1.428 26.044 2.268 24.484C3.132 22.924 4.332 21.724 5.868 20.884C7.404 20.044 9.168 19.624 11.16 19.624C13.104 19.624 14.832 20.032 16.344 20.848C17.856 21.664 19.032 22.828 19.872 24.34C20.736 25.852 21.168 27.616 21.168 29.632ZM14.868 28.012C14.868 26.956 14.508 26.116 13.788 25.492C13.068 24.868 12.168 24.556 11.088 24.556C10.056 24.556 9.18 24.856 8.46 25.456C7.764 26.056 7.332 26.908 7.164 28.012H14.868ZM138.636 19.696C141.132 19.696 143.112 20.452 144.576 21.964C146.064 23.476 146.808 25.576 146.808 28.264V40H140.688V29.092C140.688 27.796 140.34 26.8 139.644 26.104C138.972 25.384 138.036 25.024 136.836 25.024C135.636 25.024 134.688 25.384 133.992 26.104C133.32 26.8 132.984 27.796 132.984 29.092V40H126.864V29.092C126.864 27.796 126.516 26.8 125.82 26.104C125.148 25.384 124.212 25.024 123.012 25.024C121.812 25.024 120.864 25.384 120.168 26.104C119.496 26.8 119.16 27.796 119.16 29.092V40H113.004V19.912H119.16V22.432C119.784 21.592 120.6 20.932 121.608 20.452C122.616 19.948 123.756 19.696 125.028 19.696C126.54 19.696 127.884 20.02 129.06 20.668C130.26 21.316 131.196 22.24 131.868 23.44C132.564 22.336 133.512 21.436 134.712 20.74C135.912 20.044 137.22 19.696 138.636 19.696ZM171.489 29.632C171.489 30.208 171.453 30.808 171.381 31.432H157.449C157.545 32.68 157.941 33.64 158.637 34.312C159.357 34.96 160.233 35.284 161.265 35.284C162.801 35.284 163.869 34.636 164.469 33.34H171.021C170.685 34.66 170.073 35.848 169.185 36.904C168.321 37.96 167.229 38.788 165.909 39.388C164.589 39.988 163.113 40.288 161.481 40.288C159.513 40.288 157.761 39.868 156.225 39.028C154.689 38.188 153.489 36.988 152.625 35.428C151.761 33.868 151.329 32.044 151.329 29.956C151.329 27.868 151.749 26.044 152.589 24.484C153.453 22.924 154.653 21.724 156.189 20.884C157.725 20.044 159.489 19.624 161.481 19.624C163.425 19.624 165.153 20.032 166.665 20.848C168.177 21.664 169.353 22.828 170.193 24.34C171.057 25.852 171.489 27.616 171.489 29.632ZM165.189 28.012C165.189 26.956 164.829 26.116 164.109 25.492C163.389 24.868 162.489 24.556 161.409 24.556C160.377 24.556 159.501 24.856 158.781 25.456C158.085 26.056 157.653 26.908 157.485 28.012H165.189ZM182.333 23.26C183.053 22.156 183.953 21.292 185.033 20.668C186.113 20.02 187.313 19.696 188.633 19.696V26.212H186.941C185.405 26.212 184.253 26.548 183.485 27.22C182.717 27.868 182.333 29.02 182.333 30.676V40H176.177V19.912H182.333V23.26ZM191.791 29.956C191.791 27.868 192.211 26.044 193.051 24.484C193.915 22.924 195.103 21.724 196.615 20.884C198.151 20.044 199.903 19.624 201.871 19.624C204.391 19.624 206.491 20.284 208.171 21.604C209.875 22.924 210.991 24.784 211.519 27.184H204.967C204.415 25.648 203.347 24.88 201.763 24.88C200.635 24.88 199.735 25.324 199.063 26.212C198.391 27.076 198.055 28.324 198.055 29.956C198.055 31.588 198.391 32.848 199.063 33.736C199.735 34.6 200.635 35.032 201.763 35.032C203.347 35.032 204.415 34.264 204.967 32.728H211.519C210.991 35.08 209.875 36.928 208.171 38.272C206.467 39.616 204.367 40.288 201.871 40.288C199.903 40.288 198.151 39.868 196.615 39.028C195.103 38.188 193.915 36.988 193.051 35.428C192.211 33.868 191.791 32.044 191.791 29.956ZM236.772 19.912L224.172 49.54H217.548L222.156 39.316L213.984 19.912H220.86L225.504 32.476L230.112 19.912H236.772Z" fill="black"/>
<path d="M24.6316 29.956C24.6316 27.868 25.0516 26.044 25.8916 24.484C26.7556 22.924 27.9436 21.724 29.4556 20.884C30.9916 20.044 32.7436 19.624 34.7116 19.624C37.2316 19.624 39.3316 20.284 41.0116 21.604C42.7156 22.924 43.8316 24.784 44.3596 27.184H37.8076C37.2556 25.648 36.1876 24.88 34.6036 24.88C33.4756 24.88 32.5756 25.324 31.9036 26.212C31.2316 27.076 30.8956 28.324 30.8956 29.956C30.8956 31.588 31.2316 32.848 31.9036 33.736C32.5756 34.6 33.4756 35.032 34.6036 35.032C36.1876 35.032 37.2556 34.264 37.8076 32.728H44.3596C43.8316 35.08 42.7156 36.928 41.0116 38.272C39.3076 39.616 37.2076 40.288 34.7116 40.288C32.7436 40.288 30.9916 39.868 29.4556 39.028C27.9436 38.188 26.7556 36.988 25.8916 35.428C25.0516 33.868 24.6316 32.044 24.6316 29.956Z" fill="#BB0E0F"/>
<path d="M58.2365 40.288C56.2685 40.288 54.4925 39.868 52.9085 39.028C51.3485 38.188 50.1125 36.988 49.2005 35.428C48.3125 33.868 47.8685 32.044 47.8685 29.956C47.8685 27.892 48.3245 26.08 49.2365 24.52C50.1485 22.936 51.3965 21.724 52.9805 20.884C54.5645 20.044 56.3405 19.624 58.3085 19.624C60.2765 19.624 62.0525 20.044 63.6365 20.884C65.2205 21.724 66.4685 22.936 67.3805 24.52C68.2925 26.08 68.7485 27.892 68.7485 29.956C68.7485 32.02 68.2805 33.844 67.3445 35.428C66.4325 36.988 65.1725 38.188 63.5645 39.028C61.9805 39.868 60.2045 40.288 58.2365 40.288ZM58.2365 34.96C59.4125 34.96 60.4085 34.528 61.2245 33.664C62.0645 32.8 62.4845 31.564 62.4845 29.956C62.4845 28.348 62.0765 27.112 61.2605 26.248C60.4685 25.384 59.4845 24.952 58.3085 24.952C57.1085 24.952 56.1125 25.384 55.3205 26.248C54.5285 27.088 54.1325 28.324 54.1325 29.956C54.1325 31.564 54.5165 32.8 55.2845 33.664C56.0765 34.528 57.0605 34.96 58.2365 34.96Z" fill="#F2A33B"/>
<path d="M99.0863 19.696C101.582 19.696 103.562 20.452 105.026 21.964C106.514 23.476 107.258 25.576 107.258 28.264V40H101.138V29.092C101.138 27.796 100.79 26.8 100.094 26.104C99.4223 25.384 98.4863 25.024 97.2863 25.024C96.0863 25.024 95.1383 25.384 94.4423 26.104C93.7703 26.8 93.4343 27.796 93.4343 29.092V40H87.3143V29.092C87.3143 27.796 86.9663 26.8 86.2703 26.104C85.5983 25.384 84.6623 25.024 83.4623 25.024C82.2623 25.024 81.3143 25.384 80.6183 26.104C79.9463 26.8 79.6103 27.796 79.6103 29.092V40H73.4543V19.912H79.6103V22.432C80.2343 21.592 81.0503 20.932 82.0583 20.452C83.0663 19.948 84.2063 19.696 85.4783 19.696C86.9903 19.696 88.3343 20.02 89.5103 20.668C90.7103 21.316 91.6463 22.24 92.3183 23.44C93.0143 22.336 93.9623 21.436 95.1623 20.74C96.3623 20.044 97.6703 19.696 99.0863 19.696Z" fill="#C0C0C0"/>
</svg>
