<svg width="198" height="54" viewBox="0 0 198 54" fill="none" xmlns="http://www.w3.org/2000/svg">
<path d="M21.168 29.632C21.168 30.208 21.132 30.808 21.06 31.432H7.128C7.224 32.68 7.62 33.64 8.316 34.312C9.036 34.96 9.912 35.284 10.944 35.284C12.48 35.284 13.548 34.636 14.148 33.34H20.7C20.364 34.66 19.752 35.848 18.864 36.904C18 37.96 16.908 38.788 15.588 39.388C14.268 39.988 12.792 40.288 11.16 40.288C9.192 40.288 7.44 39.868 5.904 39.028C4.368 38.188 3.168 36.988 2.304 35.428C1.44 33.868 1.008 32.044 1.008 29.956C1.008 27.868 1.428 26.044 2.268 24.484C3.132 22.924 4.332 21.724 5.868 20.884C7.404 20.044 9.168 19.624 11.16 19.624C13.104 19.624 14.832 20.032 16.344 20.848C17.856 21.664 19.032 22.828 19.872 24.34C20.736 25.852 21.168 27.616 21.168 29.632ZM14.868 28.012C14.868 26.956 14.508 26.116 13.788 25.492C13.068 24.868 12.168 24.556 11.088 24.556C10.056 24.556 9.18 24.856 8.46 25.456C7.764 26.056 7.332 26.908 7.164 28.012H14.868ZM131.94 29.632C131.94 30.208 131.904 30.808 131.832 31.432H117.9C117.996 32.68 118.392 33.64 119.088 34.312C119.808 34.96 120.684 35.284 121.716 35.284C123.252 35.284 124.32 34.636 124.92 33.34H131.472C131.136 34.66 130.524 35.848 129.636 36.904C128.772 37.96 127.68 38.788 126.36 39.388C125.04 39.988 123.564 40.288 121.932 40.288C119.964 40.288 118.212 39.868 116.676 39.028C115.14 38.188 113.94 36.988 113.076 35.428C112.212 33.868 111.78 32.044 111.78 29.956C111.78 27.868 112.2 26.044 113.04 24.484C113.904 22.924 115.104 21.724 116.64 20.884C118.176 20.044 119.94 19.624 121.932 19.624C123.876 19.624 125.604 20.032 127.116 20.848C128.628 21.664 129.804 22.828 130.644 24.34C131.508 25.852 131.94 27.616 131.94 29.632ZM125.64 28.012C125.64 26.956 125.28 26.116 124.56 25.492C123.84 24.868 122.94 24.556 121.86 24.556C120.828 24.556 119.952 24.856 119.232 25.456C118.536 26.056 118.104 26.908 117.936 28.012H125.64ZM142.783 23.26C143.503 22.156 144.403 21.292 145.483 20.668C146.563 20.02 147.763 19.696 149.083 19.696V26.212H147.391C145.855 26.212 144.703 26.548 143.935 27.22C143.167 27.868 142.783 29.02 142.783 30.676V40H136.627V19.912H142.783V23.26ZM152.242 29.956C152.242 27.868 152.662 26.044 153.502 24.484C154.366 22.924 155.554 21.724 157.066 20.884C158.602 20.044 160.354 19.624 162.322 19.624C164.842 19.624 166.942 20.284 168.622 21.604C170.326 22.924 171.442 24.784 171.97 27.184H165.418C164.866 25.648 163.798 24.88 162.214 24.88C161.086 24.88 160.186 25.324 159.514 26.212C158.842 27.076 158.506 28.324 158.506 29.956C158.506 31.588 158.842 32.848 159.514 33.736C160.186 34.6 161.086 35.032 162.214 35.032C163.798 35.032 164.866 34.264 165.418 32.728H171.97C171.442 35.08 170.326 36.928 168.622 38.272C166.918 39.616 164.818 40.288 162.322 40.288C160.354 40.288 158.602 39.868 157.066 39.028C155.554 38.188 154.366 36.988 153.502 35.428C152.662 33.868 152.242 32.044 152.242 29.956ZM197.223 19.912L184.623 49.54H177.999L182.607 39.316L174.435 19.912H181.311L185.955 32.476L190.563 19.912H197.223Z" fill="black"/>
<path d="M24.6316 29.956C24.6316 27.868 25.0516 26.044 25.8916 24.484C26.7556 22.924 27.9436 21.724 29.4556 20.884C30.9916 20.044 32.7436 19.624 34.7116 19.624C37.2316 19.624 39.3316 20.284 41.0116 21.604C42.7156 22.924 43.8316 24.784 44.3596 27.184H37.8076C37.2556 25.648 36.1876 24.88 34.6036 24.88C33.4756 24.88 32.5756 25.324 31.9036 26.212C31.2316 27.076 30.8956 28.324 30.8956 29.956C30.8956 31.588 31.2316 32.848 31.9036 33.736C32.5756 34.6 33.4756 35.032 34.6036 35.032C36.1876 35.032 37.2556 34.264 37.8076 32.728H44.3596C43.8316 35.08 42.7156 36.928 41.0116 38.272C39.3076 39.616 37.2076 40.288 34.7116 40.288C32.7436 40.288 30.9916 39.868 29.4556 39.028C27.9436 38.188 26.7556 36.988 25.8916 35.428C25.0516 33.868 24.6316 32.044 24.6316 29.956Z" fill="#BB0E0F"/>
<path d="M58.2365 40.288C56.2685 40.288 54.4925 39.868 52.9085 39.028C51.3485 38.188 50.1125 36.988 49.2005 35.428C48.3125 33.868 47.8685 32.044 47.8685 29.956C47.8685 27.892 48.3245 26.08 49.2365 24.52C50.1485 22.936 51.3965 21.724 52.9805 20.884C54.5645 20.044 56.3405 19.624 58.3085 19.624C60.2765 19.624 62.0525 20.044 63.6365 20.884C65.2205 21.724 66.4685 22.936 67.3805 24.52C68.2925 26.08 68.7485 27.892 68.7485 29.956C68.7485 32.02 68.2805 33.844 67.3445 35.428C66.4325 36.988 65.1725 38.188 63.5645 39.028C61.9805 39.868 60.2045 40.288 58.2365 40.288ZM58.2365 34.96C59.4125 34.96 60.4085 34.528 61.2245 33.664C62.0645 32.8 62.4845 31.564 62.4845 29.956C62.4845 28.348 62.0765 27.112 61.2605 26.248C60.4685 25.384 59.4845 24.952 58.3085 24.952C57.1085 24.952 56.1125 25.384 55.3205 26.248C54.5285 27.088 54.1325 28.324 54.1325 29.956C54.1325 31.564 54.5165 32.8 55.2845 33.664C56.0765 34.528 57.0605 34.96 58.2365 34.96Z" fill="#F2A33B"/>
<path d="M99.0863 19.696C101.582 19.696 103.562 20.452 105.026 21.964C106.514 23.476 107.258 25.576 107.258 28.264V40H101.138V29.092C101.138 27.796 100.79 26.8 100.094 26.104C99.4223 25.384 98.4863 25.024 97.2863 25.024C96.0863 25.024 95.1383 25.384 94.4423 26.104C93.7703 26.8 93.4343 27.796 93.4343 29.092V40H87.3143V29.092C87.3143 27.796 86.9663 26.8 86.2703 26.104C85.5983 25.384 84.6623 25.024 83.4623 25.024C82.2623 25.024 81.3143 25.384 80.6183 26.104C79.9463 26.8 79.6103 27.796 79.6103 29.092V40H73.4543V19.912H79.6103V22.432C80.2343 21.592 81.0503 20.932 82.0583 20.452C83.0663 19.948 84.2063 19.696 85.4783 19.696C86.9903 19.696 88.3343 20.02 89.5103 20.668C90.7103 21.316 91.6463 22.24 92.3183 23.44C93.0143 22.336 93.9623 21.436 95.1623 20.74C96.3623 20.044 97.6703 19.696 99.0863 19.696Z" fill="#C0C0C0"/>
</svg>
